<svg width="1177" height="310" viewBox="0 0 1177 310" fill="none" xmlns="http://www.w3.org/2000/svg">
<mask id="path-1-outside-1_3478_195" maskUnits="userSpaceOnUse" x="195" y="1" width="794" height="149" fill="black">
<rect fill="white" x="195" y="1" width="794" height="149"/>
<path d="M325.161 54.3594H294.675C294.118 50.4152 292.981 46.9119 291.264 43.8494C289.547 40.7405 287.343 38.0956 284.652 35.9148C281.961 33.7339 278.852 32.0634 275.325 30.9034C271.845 29.7434 268.063 29.1634 263.98 29.1634C256.602 29.1634 250.176 30.9962 244.7 34.6619C239.225 38.2812 234.979 43.571 231.963 50.5312C228.947 57.4451 227.439 65.8437 227.439 75.7273C227.439 85.8892 228.947 94.4271 231.963 101.341C235.026 108.255 239.295 113.475 244.77 117.001C250.245 120.528 256.579 122.291 263.771 122.291C267.808 122.291 271.544 121.758 274.977 120.69C278.457 119.623 281.543 118.069 284.234 116.027C286.926 113.939 289.153 111.41 290.916 108.44C292.726 105.471 293.979 102.083 294.675 98.2784L325.161 98.4176C324.372 104.96 322.4 111.271 319.244 117.349C316.135 123.382 311.936 128.787 306.646 133.567C301.403 138.3 295.139 142.058 287.854 144.842C280.615 147.58 272.425 148.949 263.284 148.949C250.57 148.949 239.202 146.072 229.179 140.318C219.203 134.564 211.314 126.235 205.514 115.331C199.76 104.427 196.884 91.2254 196.884 75.7273C196.884 60.1828 199.807 46.9583 205.653 36.054C211.5 25.1496 219.435 16.8437 229.457 11.1364C239.48 5.38257 250.756 2.50568 263.284 2.50568C271.544 2.50568 279.2 3.66571 286.253 5.98579C293.352 8.30587 299.64 11.6932 305.115 16.1477C310.59 20.5559 315.045 25.9616 318.479 32.3651C321.959 38.7685 324.186 46.0999 325.161 54.3594ZM371.602 147H339.306L388.515 4.45454H427.353L476.493 147H444.197L408.491 37.0284H407.378L371.602 147ZM369.583 90.9702H445.868V114.496H369.583V90.9702ZM496.59 147V4.45454H552.828C563.593 4.45454 572.781 6.3802 580.391 10.2315C588.047 14.0365 593.87 19.4422 597.861 26.4489C601.898 33.4091 603.916 41.599 603.916 51.0185C603.916 60.4844 601.875 68.6278 597.791 75.4489C593.708 82.2235 587.792 87.4205 580.043 91.0398C572.34 94.6591 563.013 96.4688 552.063 96.4688H514.408V72.2472H547.19C552.944 72.2472 557.724 71.4583 561.528 69.8807C565.333 68.303 568.164 65.9366 570.02 62.7812C571.922 59.6259 572.874 55.705 572.874 51.0185C572.874 46.2855 571.922 42.295 570.02 39.0469C568.164 35.7988 565.31 33.3395 561.459 31.669C557.654 29.9522 552.851 29.0938 547.051 29.0938H526.727V147H496.59ZM573.57 82.1307L608.997 147H575.727L541.065 82.1307H573.57ZM628.155 147V4.45454H724.206V29.3026H658.292V63.2685H719.264V88.1165H658.292V122.152H724.484V147H628.155ZM751.106 147V4.45454H847.157V29.3026H781.244V63.2685H842.216V88.1165H781.244V122.152H847.436V147H751.106ZM874.058 147V4.45454H930.297C941.062 4.45454 950.249 6.3802 957.859 10.2315C965.515 14.0365 971.339 19.4422 975.329 26.4489C979.366 33.4091 981.385 41.599 981.385 51.0185C981.385 60.4844 979.343 68.6278 975.26 75.4489C971.176 82.2235 965.26 87.4205 957.511 91.0398C949.808 94.6591 940.482 96.4688 929.531 96.4688H891.876V72.2472H924.659C930.413 72.2472 935.192 71.4583 938.997 69.8807C942.802 68.303 945.632 65.9366 947.488 62.7812C949.391 59.6259 950.342 55.705 950.342 51.0185C950.342 46.2855 949.391 42.295 947.488 39.0469C945.632 35.7988 942.779 33.3395 938.927 31.669C935.122 29.9522 930.32 29.0938 924.52 29.0938H904.196V147H874.058ZM951.038 82.1307L986.466 147H953.196L918.534 82.1307H951.038Z"/>
</mask>
<path d="M325.161 54.3594V55.3594H326.285L326.154 54.2422L325.161 54.3594ZM294.675 54.3594L293.685 54.4992L293.806 55.3594H294.675V54.3594ZM291.264 43.8494L290.389 44.3329L290.392 44.3384L291.264 43.8494ZM284.652 35.9148L284.022 36.6917L284.652 35.9148ZM275.325 30.9034L275.009 31.8521L275.013 31.8533L275.325 30.9034ZM244.7 34.6619L245.252 35.4962L245.257 35.4929L244.7 34.6619ZM231.963 50.5312L232.88 50.9311L232.881 50.9289L231.963 50.5312ZM231.963 101.341L231.046 101.741L231.049 101.746L231.963 101.341ZM244.77 117.001L244.228 117.842L244.77 117.001ZM274.977 120.69L274.684 119.734L274.68 119.735L274.977 120.69ZM284.234 116.027L284.839 116.824L284.847 116.817L284.234 116.027ZM290.916 108.44L290.062 107.92L290.056 107.93L290.916 108.44ZM294.675 98.2784L294.679 97.2784L293.842 97.2746L293.691 98.0985L294.675 98.2784ZM325.161 98.4176L326.153 98.5373L326.288 97.4227L325.165 97.4176L325.161 98.4176ZM319.244 117.349L318.357 116.889L318.355 116.891L319.244 117.349ZM306.646 133.567L307.316 134.309L307.317 134.309L306.646 133.567ZM287.854 144.842L288.207 145.778L288.211 145.776L287.854 144.842ZM229.179 140.318L228.679 141.184L228.681 141.185L229.179 140.318ZM205.514 115.331L204.63 115.798L204.631 115.801L205.514 115.331ZM205.653 36.054L206.535 36.5265L205.653 36.054ZM229.457 11.1364L229.952 12.0054L229.955 12.0036L229.457 11.1364ZM286.253 5.98579L285.94 6.93572L285.942 6.93632L286.253 5.98579ZM305.115 16.1477L304.484 16.9234L304.488 16.9267L305.115 16.1477ZM318.479 32.3651L317.597 32.8376L317.6 32.8426L318.479 32.3651ZM325.161 53.3594H294.675V55.3594H325.161V53.3594ZM295.665 54.2196C295.093 50.1691 293.922 46.5446 292.136 43.3604L290.392 44.3384C292.041 47.2793 293.143 50.6614 293.685 54.4992L295.665 54.2196ZM292.14 43.366C290.362 40.1473 288.075 37.4019 285.282 35.1378L284.022 36.6917C286.611 38.7894 288.733 41.3338 290.389 44.3328L292.14 43.366ZM285.282 35.1378C282.489 32.8752 279.271 31.1487 275.638 29.9535L275.013 31.8533C278.432 32.9782 281.432 34.5926 284.022 36.6917L285.282 35.1378ZM275.642 29.9547C272.049 28.7571 268.159 28.1634 263.98 28.1634V30.1634C267.968 30.1634 271.642 30.7297 275.009 31.8521L275.642 29.9547ZM263.98 28.1634C256.429 28.1634 249.803 30.0421 244.144 33.831L245.257 35.4929C250.548 31.9503 256.776 30.1634 263.98 30.1634V28.1634ZM244.149 33.8277C238.488 37.5699 234.126 43.0238 231.046 50.1336L232.881 50.9289C235.832 44.1182 239.962 38.9926 245.252 35.4961L244.149 33.8277ZM231.046 50.1314C227.961 57.204 226.439 65.7468 226.439 75.7273H228.439C228.439 65.9406 229.933 57.6862 232.88 50.9311L231.046 50.1314ZM226.439 75.7273C226.439 85.9817 227.96 94.6651 231.046 101.741L232.88 100.941C229.934 94.189 228.439 85.7967 228.439 75.7273H226.439ZM231.049 101.746C234.177 108.809 238.564 114.194 244.228 117.842L245.311 116.161C240.025 112.756 235.874 107.701 232.877 100.936L231.049 101.746ZM244.228 117.842C249.882 121.483 256.408 123.291 263.771 123.291V121.291C256.75 121.291 250.609 119.573 245.311 116.161L244.228 117.842ZM263.771 123.291C267.897 123.291 271.733 122.746 275.274 121.645L274.68 119.735C271.354 120.769 267.72 121.291 263.771 121.291V123.291ZM275.27 121.646C278.854 120.547 282.047 118.942 284.839 116.824L283.63 115.23C281.039 117.196 278.061 118.699 274.684 119.734L275.27 121.646ZM284.847 116.817C287.639 114.651 289.95 112.027 291.776 108.951L290.056 107.93C288.356 110.793 286.212 113.227 283.621 115.237L284.847 116.817ZM291.77 108.961C293.65 105.875 294.943 102.37 295.658 98.4584L293.691 98.0985C293.015 101.796 291.801 105.066 290.062 107.92L291.77 108.961ZM294.67 99.2784L325.156 99.4176L325.165 97.4176L294.679 97.2784L294.67 99.2784ZM324.168 98.2979C323.394 104.717 321.459 110.912 318.357 116.889L320.132 117.81C323.34 111.629 325.35 105.204 326.153 98.5373L324.168 98.2979ZM318.355 116.891C315.304 122.811 311.181 128.122 305.976 132.825L307.317 134.309C312.691 129.453 316.966 123.952 320.133 117.808L318.355 116.891ZM305.976 132.824C300.834 137.467 294.678 141.164 287.497 143.908L288.211 145.776C295.599 142.953 301.972 139.133 307.316 134.309L305.976 132.824ZM287.5 143.907C280.393 146.595 272.326 147.949 263.284 147.949V149.949C272.525 149.949 280.837 148.565 288.207 145.778L287.5 143.907ZM263.284 147.949C250.727 147.949 239.533 145.109 229.677 139.451L228.681 141.185C238.87 147.035 250.413 149.949 263.284 149.949V147.949ZM229.679 139.452C219.877 133.799 212.116 125.613 206.397 114.861L204.631 115.801C210.513 126.858 218.529 135.33 228.679 141.184L229.679 139.452ZM206.399 114.864C200.738 104.136 197.884 91.1037 197.884 75.7273H195.884C195.884 91.3471 198.783 104.717 204.63 115.798L206.399 114.864ZM197.884 75.7273C197.884 60.3062 200.784 47.253 206.535 36.5265L204.772 35.5814C198.83 46.6637 195.884 60.0593 195.884 75.7273H197.884ZM206.535 36.5265C212.299 25.7755 220.105 17.6128 229.952 12.0054L228.963 10.2674C218.764 16.0747 210.701 24.5238 204.772 35.5814L206.535 36.5265ZM229.955 12.0036C239.814 6.34404 250.915 3.50568 263.284 3.50568V1.50568C250.596 1.50568 239.146 4.4211 228.96 10.2691L229.955 12.0036ZM263.284 3.50568C271.449 3.50568 278.999 4.65231 285.94 6.93572L286.565 5.03587C279.401 2.67912 271.638 1.50568 263.284 1.50568V3.50568ZM285.942 6.93632C292.932 9.22052 299.109 12.5508 304.484 16.9234L305.746 15.372C300.17 10.8356 293.773 7.39121 286.563 5.03526L285.942 6.93632ZM304.488 16.9267C309.855 21.2479 314.225 26.5483 317.597 32.8376L319.36 31.8925C315.865 25.375 311.325 19.8638 305.742 15.3688L304.488 16.9267ZM317.6 32.8426C321.011 39.1196 323.206 46.3257 324.167 54.4765L326.154 54.2422C325.166 45.8741 322.906 38.4173 319.357 31.8875L317.6 32.8426ZM371.602 147V148H372.328L372.553 147.309L371.602 147ZM339.306 147L338.361 146.674L337.903 148H339.306V147ZM388.515 4.45454V3.45454H387.803L387.57 4.12822L388.515 4.45454ZM427.353 4.45454L428.299 4.12864L428.066 3.45454H427.353V4.45454ZM476.493 147V148H477.895L477.438 146.674L476.493 147ZM444.197 147L443.246 147.309L443.47 148H444.197V147ZM408.491 37.0284L409.442 36.7196L409.218 36.0284H408.491V37.0284ZM407.378 37.0284V36.0284H406.651L406.427 36.719L407.378 37.0284ZM369.583 90.9702V89.9702H368.583V90.9702H369.583ZM445.868 90.9702H446.868V89.9702H445.868V90.9702ZM445.868 114.496V115.496H446.868V114.496H445.868ZM369.583 114.496H368.583V115.496H369.583V114.496ZM371.602 146H339.306V148H371.602V146ZM340.252 147.326L389.461 4.78086L387.57 4.12822L338.361 146.674L340.252 147.326ZM388.515 5.45454H427.353V3.45454H388.515V5.45454ZM426.408 4.78045L475.547 147.326L477.438 146.674L428.299 4.12864L426.408 4.78045ZM476.493 146H444.197V148H476.493V146ZM445.148 146.691L409.442 36.7196L407.54 37.3372L443.246 147.309L445.148 146.691ZM408.491 36.0284H407.378V38.0284H408.491V36.0284ZM406.427 36.719L370.651 146.691L372.553 147.309L408.328 37.3378L406.427 36.719ZM369.583 91.9702H445.868V89.9702H369.583V91.9702ZM444.868 90.9702V114.496H446.868V90.9702H444.868ZM445.868 113.496H369.583V115.496H445.868V113.496ZM370.583 114.496V90.9702H368.583V114.496H370.583ZM496.59 147H495.59V148H496.59V147ZM496.59 4.45454V3.45454H495.59V4.45454H496.59ZM580.391 10.2315L579.939 11.1238L579.946 11.127L580.391 10.2315ZM597.861 26.4489L596.992 26.9438L596.996 26.9506L597.861 26.4489ZM597.791 75.4489L598.648 75.9651L598.649 75.9625L597.791 75.4489ZM580.043 91.0398L579.619 90.1337L579.617 90.1347L580.043 91.0398ZM514.408 96.4688H513.408V97.4688H514.408V96.4688ZM514.408 72.2472V71.2472H513.408V72.2472H514.408ZM561.528 69.8807L561.911 70.8044L561.528 69.8807ZM570.02 62.7812L569.163 62.2649L569.158 62.2742L570.02 62.7812ZM570.02 39.0469L569.152 39.543L569.157 39.5523L570.02 39.0469ZM561.459 31.669L561.048 32.5805L561.054 32.5835L561.061 32.5865L561.459 31.669ZM526.727 29.0938V28.0938H525.727V29.0938H526.727ZM526.727 147V148H527.727V147H526.727ZM573.57 82.1307L574.447 81.6514L574.163 81.1307H573.57V82.1307ZM608.997 147V148H610.683L609.875 146.521L608.997 147ZM575.727 147L574.845 147.471L575.128 148H575.727V147ZM541.065 82.1307V81.1307H539.397L540.183 82.602L541.065 82.1307ZM497.59 147V4.45454H495.59V147H497.59ZM496.59 5.45454H552.828V3.45454H496.59V5.45454ZM552.828 5.45454C563.477 5.45454 572.501 7.35941 579.939 11.1238L580.842 9.33929C573.061 5.401 563.71 3.45454 552.828 3.45454V5.45454ZM579.946 11.127C587.435 14.8491 593.106 20.1205 596.992 26.9438L598.73 25.954C594.635 18.764 588.659 13.2238 580.836 9.33602L579.946 11.127ZM596.996 26.9506C600.93 33.7341 602.916 41.7448 602.916 51.0185H604.916C604.916 41.4531 602.865 33.0841 598.726 25.9471L596.996 26.9506ZM602.916 51.0185C602.916 60.3382 600.907 68.2967 596.933 74.9352L598.649 75.9625C602.842 68.9589 604.916 60.6305 604.916 51.0185H602.916ZM596.935 74.9326C592.962 81.5233 587.204 86.5913 579.619 90.1337L580.466 91.9458C588.38 88.2496 594.453 82.9237 598.648 75.9651L596.935 74.9326ZM579.617 90.1347C572.08 93.6763 562.907 95.4688 552.063 95.4688V97.4688C563.12 97.4688 572.6 95.6419 580.468 91.9448L579.617 90.1347ZM552.063 95.4688H514.408V97.4688H552.063V95.4688ZM515.408 96.4688V72.2472H513.408V96.4688H515.408ZM514.408 73.2472H547.19V71.2472H514.408V73.2472ZM547.19 73.2472C553.027 73.2472 557.947 72.4482 561.911 70.8044L561.145 68.9569C557.5 70.4685 552.861 71.2472 547.19 71.2472V73.2472ZM561.911 70.8044C565.891 69.1545 568.902 66.654 570.882 63.2883L569.158 62.2742C567.426 65.2191 564.776 67.4516 561.145 68.9569L561.911 70.8044ZM570.876 63.2976C572.895 59.9494 573.874 55.8382 573.874 51.0185H571.874C571.874 55.5718 570.95 59.3025 569.164 62.2649L570.876 63.2976ZM573.874 51.0185C573.874 46.153 572.895 41.9776 570.883 38.5415L569.157 39.5523C570.949 42.6123 571.874 46.418 571.874 51.0185H573.874ZM570.888 38.5507C568.912 35.0924 565.881 32.497 561.857 30.7516L561.061 32.5865C564.74 34.182 567.416 36.5051 569.152 39.543L570.888 38.5507ZM561.87 30.7575C557.896 28.9643 552.941 28.0938 547.051 28.0938V30.0938C552.761 30.0938 557.412 30.9401 561.048 32.5805L561.87 30.7575ZM547.051 28.0938H526.727V30.0938H547.051V28.0938ZM525.727 29.0938V147H527.727V29.0938H525.727ZM526.727 146H496.59V148H526.727V146ZM572.692 82.61L608.12 147.479L609.875 146.521L574.447 81.6514L572.692 82.61ZM608.997 146H575.727V148H608.997V146ZM576.609 146.529L541.947 81.6594L540.183 82.602L574.845 147.471L576.609 146.529ZM541.065 83.1307H573.57V81.1307H541.065V83.1307ZM628.155 147H627.155V148H628.155V147ZM628.155 4.45454V3.45454H627.155V4.45454H628.155ZM724.206 4.45454H725.206V3.45454H724.206V4.45454ZM724.206 29.3026V30.3026H725.206V29.3026H724.206ZM658.292 29.3026V28.3026H657.292V29.3026H658.292ZM658.292 63.2685H657.292V64.2685H658.292V63.2685ZM719.264 63.2685H720.264V62.2685H719.264V63.2685ZM719.264 88.1165V89.1165H720.264V88.1165H719.264ZM658.292 88.1165V87.1165H657.292V88.1165H658.292ZM658.292 122.152H657.292V123.152H658.292V122.152ZM724.484 122.152H725.484V121.152H724.484V122.152ZM724.484 147V148H725.484V147H724.484ZM629.155 147V4.45454H627.155V147H629.155ZM628.155 5.45454H724.206V3.45454H628.155V5.45454ZM723.206 4.45454V29.3026H725.206V4.45454H723.206ZM724.206 28.3026H658.292V30.3026H724.206V28.3026ZM657.292 29.3026V63.2685H659.292V29.3026H657.292ZM658.292 64.2685H719.264V62.2685H658.292V64.2685ZM718.264 63.2685V88.1165H720.264V63.2685H718.264ZM719.264 87.1165H658.292V89.1165H719.264V87.1165ZM657.292 88.1165V122.152H659.292V88.1165H657.292ZM658.292 123.152H724.484V121.152H658.292V123.152ZM723.484 122.152V147H725.484V122.152H723.484ZM724.484 146H628.155V148H724.484V146ZM751.106 147H750.106V148H751.106V147ZM751.106 4.45454V3.45454H750.106V4.45454H751.106ZM847.157 4.45454H848.157V3.45454H847.157V4.45454ZM847.157 29.3026V30.3026H848.157V29.3026H847.157ZM781.244 29.3026V28.3026H780.244V29.3026H781.244ZM781.244 63.2685H780.244V64.2685H781.244V63.2685ZM842.216 63.2685H843.216V62.2685H842.216V63.2685ZM842.216 88.1165V89.1165H843.216V88.1165H842.216ZM781.244 88.1165V87.1165H780.244V88.1165H781.244ZM781.244 122.152H780.244V123.152H781.244V122.152ZM847.436 122.152H848.436V121.152H847.436V122.152ZM847.436 147V148H848.436V147H847.436ZM752.106 147V4.45454H750.106V147H752.106ZM751.106 5.45454H847.157V3.45454H751.106V5.45454ZM846.157 4.45454V29.3026H848.157V4.45454H846.157ZM847.157 28.3026H781.244V30.3026H847.157V28.3026ZM780.244 29.3026V63.2685H782.244V29.3026H780.244ZM781.244 64.2685H842.216V62.2685H781.244V64.2685ZM841.216 63.2685V88.1165H843.216V63.2685H841.216ZM842.216 87.1165H781.244V89.1165H842.216V87.1165ZM780.244 88.1165V122.152H782.244V88.1165H780.244ZM781.244 123.152H847.436V121.152H781.244V123.152ZM846.436 122.152V147H848.436V122.152H846.436ZM847.436 146H751.106V148H847.436V146ZM874.058 147H873.058V148H874.058V147ZM874.058 4.45454V3.45454H873.058V4.45454H874.058ZM957.859 10.2315L957.408 11.1238L957.414 11.127L957.859 10.2315ZM975.329 26.4489L974.46 26.9438L974.464 26.9506L975.329 26.4489ZM975.26 75.4489L976.116 75.9651L976.118 75.9625L975.26 75.4489ZM957.511 91.0398L957.088 90.1337L957.086 90.1347L957.511 91.0398ZM891.876 96.4688H890.876V97.4688H891.876V96.4688ZM891.876 72.2472V71.2472H890.876V72.2472H891.876ZM938.997 69.8807L939.38 70.8044L938.997 69.8807ZM947.488 62.7812L946.632 62.2649L946.626 62.2742L947.488 62.7812ZM947.488 39.0469L946.62 39.543L946.625 39.5523L947.488 39.0469ZM938.927 31.669L938.516 32.5805L938.523 32.5835L938.529 32.5865L938.927 31.669ZM904.196 29.0938V28.0938H903.196V29.0938H904.196ZM904.196 147V148H905.196V147H904.196ZM951.038 82.1307L951.916 81.6514L951.631 81.1307H951.038V82.1307ZM986.466 147V148H988.151L987.343 146.521L986.466 147ZM953.196 147L952.314 147.471L952.596 148H953.196V147ZM918.534 82.1307V81.1307H916.866L917.652 82.602L918.534 82.1307ZM875.058 147V4.45454H873.058V147H875.058ZM874.058 5.45454H930.297V3.45454H874.058V5.45454ZM930.297 5.45454C940.945 5.45454 949.97 7.35941 957.408 11.1238L958.311 9.33929C950.529 5.401 941.179 3.45454 930.297 3.45454V5.45454ZM957.414 11.127C964.904 14.8491 970.574 20.1205 974.46 26.9438L976.198 25.954C972.103 18.764 966.127 13.2238 958.304 9.33602L957.414 11.127ZM974.464 26.9506C978.399 33.7341 980.385 41.7448 980.385 51.0185H982.385C982.385 41.4531 980.334 33.0841 976.194 25.9471L974.464 26.9506ZM980.385 51.0185C980.385 60.3382 978.376 68.2967 974.402 74.9352L976.118 75.9625C980.31 68.9589 982.385 60.6305 982.385 51.0185H980.385ZM974.403 74.9326C970.431 81.5233 964.672 86.5913 957.088 90.1337L957.934 91.9458C965.848 88.2496 971.922 82.9237 976.116 75.9651L974.403 74.9326ZM957.086 90.1347C949.549 93.6763 940.375 95.4688 929.531 95.4688V97.4688C940.588 97.4688 950.068 95.6419 957.936 91.9448L957.086 90.1347ZM929.531 95.4688H891.876V97.4688H929.531V95.4688ZM892.876 96.4688V72.2472H890.876V96.4688H892.876ZM891.876 73.2472H924.659V71.2472H891.876V73.2472ZM924.659 73.2472C930.496 73.2472 935.416 72.4482 939.38 70.8044L938.614 68.9569C934.968 70.4685 930.33 71.2472 924.659 71.2472V73.2472ZM939.38 70.8044C943.359 69.1545 946.37 66.654 948.35 63.2883L946.626 62.2742C944.894 65.2191 942.245 67.4516 938.614 68.9569L939.38 70.8044ZM948.345 63.2976C950.364 59.9494 951.342 55.8382 951.342 51.0185H949.342C949.342 55.5718 948.418 59.3025 946.632 62.2649L948.345 63.2976ZM951.342 51.0185C951.342 46.153 950.364 41.9776 948.351 38.5415L946.625 39.5523C948.418 42.6123 949.342 46.418 949.342 51.0185H951.342ZM948.357 38.5507C946.38 35.0924 943.349 32.497 939.325 30.7516L938.529 32.5865C942.208 34.182 944.884 36.5051 946.62 39.543L948.357 38.5507ZM939.339 30.7575C935.364 28.9643 930.41 28.0938 924.52 28.0938V30.0938C930.23 30.0938 934.88 30.9401 938.516 32.5805L939.339 30.7575ZM924.52 28.0938H904.196V30.0938H924.52V28.0938ZM903.196 29.0938V147H905.196V29.0938H903.196ZM904.196 146H874.058V148H904.196V146ZM950.16 82.61L985.588 147.479L987.343 146.521L951.916 81.6514L950.16 82.61ZM986.466 146H953.196V148H986.466V146ZM954.078 146.529L919.416 81.6594L917.652 82.602L952.314 147.471L954.078 146.529ZM918.534 83.1307H951.038V81.1307H918.534V83.1307Z" fill="#472D00" mask="url(#path-1-outside-1_3478_195)"/>
<mask id="path-3-outside-2_3478_195" maskUnits="userSpaceOnUse" x="8" y="160" width="1159" height="149" fill="black">
<rect fill="white" x="8" y="160" width="1159" height="149"/>
<path d="M138.161 213.359H107.675C107.118 209.415 105.981 205.912 104.264 202.849C102.547 199.741 100.343 197.096 97.652 194.915C94.9607 192.734 91.8518 191.063 88.3253 189.903C84.8452 188.743 81.0634 188.163 76.9801 188.163C69.6023 188.163 63.1757 189.996 57.7003 193.662C52.2249 197.281 47.9792 202.571 44.9631 209.531C41.947 216.445 40.4389 224.844 40.4389 234.727C40.4389 244.889 41.947 253.427 44.9631 260.341C48.0256 267.255 52.2945 272.475 57.7699 276.001C63.2453 279.528 69.5791 281.291 76.7713 281.291C80.8082 281.291 84.5436 280.758 87.9773 279.69C91.4574 278.623 94.5431 277.069 97.2344 275.027C99.9257 272.939 102.153 270.41 103.916 267.44C105.726 264.471 106.979 261.083 107.675 257.278L138.161 257.418C137.372 263.96 135.4 270.271 132.244 276.349C129.135 282.382 124.936 287.787 119.646 292.567C114.403 297.3 108.139 301.058 100.854 303.842C93.6151 306.58 85.4252 307.949 76.2841 307.949C63.5701 307.949 52.2017 305.072 42.179 299.318C32.2027 293.564 24.3144 285.235 18.5142 274.331C12.7604 263.427 9.88352 250.225 9.88352 234.727C9.88352 219.183 12.8068 205.958 18.6534 195.054C24.5 184.15 32.4347 175.844 42.4574 170.136C52.4801 164.383 63.7557 161.506 76.2841 161.506C84.5436 161.506 92.1998 162.666 99.2528 164.986C106.352 167.306 112.64 170.693 118.115 175.148C123.59 179.556 128.045 184.962 131.479 191.365C134.959 197.768 137.186 205.1 138.161 213.359ZM162.712 306V163.455H192.85V222.268H254.03V163.455H284.098V306H254.03V247.116H192.85V306H162.712ZM311.886 306V163.455H368.125C378.89 163.455 388.078 165.38 395.688 169.232C403.344 173.036 409.167 178.442 413.158 185.449C417.195 192.409 419.213 200.599 419.213 210.018C419.213 219.484 417.171 227.628 413.088 234.449C409.005 241.223 403.089 246.42 395.34 250.04C387.637 253.659 378.31 255.469 367.359 255.469H329.705V231.247H362.487C368.241 231.247 373.02 230.458 376.825 228.881C380.63 227.303 383.461 224.937 385.317 221.781C387.219 218.626 388.17 214.705 388.17 210.018C388.17 205.286 387.219 201.295 385.317 198.047C383.461 194.799 380.607 192.339 376.756 190.669C372.951 188.952 368.148 188.094 362.348 188.094H342.024V306H311.886ZM388.867 241.131L424.294 306H391.024L356.362 241.131H388.867ZM574.443 234.727C574.443 250.272 571.496 263.496 565.603 274.401C559.757 285.305 551.776 293.634 541.66 299.388C531.591 305.095 520.269 307.949 507.694 307.949C495.027 307.949 483.658 305.072 473.589 299.318C463.52 293.564 455.562 285.235 449.716 274.331C443.869 263.427 440.946 250.225 440.946 234.727C440.946 219.183 443.869 205.958 449.716 195.054C455.562 184.15 463.52 175.844 473.589 170.136C483.658 164.383 495.027 161.506 507.694 161.506C520.269 161.506 531.591 164.383 541.66 170.136C551.776 175.844 559.757 184.15 565.603 195.054C571.496 205.958 574.443 219.183 574.443 234.727ZM543.887 234.727C543.887 224.658 542.379 216.167 539.363 209.253C536.394 202.339 532.194 197.096 526.765 193.523C521.336 189.95 514.979 188.163 507.694 188.163C500.409 188.163 494.052 189.95 488.623 193.523C483.194 197.096 478.972 202.339 475.956 209.253C472.986 216.167 471.501 224.658 471.501 234.727C471.501 244.796 472.986 253.288 475.956 260.202C478.972 267.116 483.194 272.359 488.623 275.932C494.052 279.505 500.409 281.291 507.694 281.291C514.979 281.291 521.336 279.505 526.765 275.932C532.194 272.359 536.394 267.116 539.363 260.202C542.379 253.288 543.887 244.796 543.887 234.727ZM718.937 163.455V306H692.905L630.89 216.283H629.846V306H599.708V163.455H626.157L687.685 253.102H688.938V163.455H718.937ZM776.915 163.455V306H746.777V163.455H776.915ZM930.422 213.359H899.936C899.379 209.415 898.242 205.912 896.525 202.849C894.808 199.741 892.604 197.096 889.913 194.915C887.222 192.734 884.113 191.063 880.586 189.903C877.106 188.743 873.325 188.163 869.241 188.163C861.863 188.163 855.437 189.996 849.961 193.662C844.486 197.281 840.24 202.571 837.224 209.531C834.208 216.445 832.7 224.844 832.7 234.727C832.7 244.889 834.208 253.427 837.224 260.341C840.287 267.255 844.556 272.475 850.031 276.001C855.506 279.528 861.84 281.291 869.032 281.291C873.069 281.291 876.805 280.758 880.238 279.69C883.718 278.623 886.804 277.069 889.495 275.027C892.187 272.939 894.414 270.41 896.177 267.44C897.987 264.471 899.24 261.083 899.936 257.278L930.422 257.418C929.633 263.96 927.661 270.271 924.505 276.349C921.397 282.382 917.197 287.787 911.907 292.567C906.664 297.3 900.4 301.058 893.115 303.842C885.876 306.58 877.686 307.949 868.545 307.949C855.831 307.949 844.463 305.072 834.44 299.318C824.464 293.564 816.576 285.235 810.775 274.331C805.022 263.427 802.145 250.225 802.145 234.727C802.145 219.183 805.068 205.958 810.915 195.054C816.761 184.15 824.696 175.844 834.718 170.136C844.741 164.383 856.017 161.506 868.545 161.506C876.805 161.506 884.461 162.666 891.514 164.986C898.613 167.306 904.901 170.693 910.376 175.148C915.852 179.556 920.306 184.962 923.74 191.365C927.22 197.768 929.447 205.1 930.422 213.359ZM954.973 306V163.455H985.111V281.152H1046.22V306H954.973ZM1069.12 306V163.455H1165.17V188.303H1099.26V222.268H1160.23V247.116H1099.26V281.152H1165.45V306H1069.12Z"/>
</mask>
<path d="M138.161 213.359V214.359H139.285L139.154 213.242L138.161 213.359ZM107.675 213.359L106.685 213.499L106.806 214.359H107.675V213.359ZM104.264 202.849L103.389 203.333L103.392 203.338L104.264 202.849ZM97.652 194.915L97.0224 195.692L97.652 194.915ZM88.3253 189.903L88.0091 190.852L88.0128 190.853L88.3253 189.903ZM57.7003 193.662L58.2517 194.496L58.2566 194.493L57.7003 193.662ZM44.9631 209.531L45.8797 209.931L45.8806 209.929L44.9631 209.531ZM44.9631 260.341L44.0465 260.741L44.0488 260.746L44.9631 260.341ZM57.7699 276.001L57.2284 276.842L57.7699 276.001ZM87.9773 279.69L87.6841 278.734L87.6805 278.735L87.9773 279.69ZM97.2344 275.027L97.8388 275.824L97.8474 275.817L97.2344 275.027ZM103.916 267.44L103.062 266.92L103.056 266.93L103.916 267.44ZM107.675 257.278L107.679 256.278L106.842 256.275L106.691 257.098L107.675 257.278ZM138.161 257.418L139.153 257.537L139.288 256.423L138.165 256.418L138.161 257.418ZM132.244 276.349L131.357 275.889L131.355 275.891L132.244 276.349ZM119.646 292.567L120.316 293.309L120.317 293.309L119.646 292.567ZM100.854 303.842L101.207 304.778L101.211 304.776L100.854 303.842ZM42.179 299.318L41.6794 300.184L41.6811 300.185L42.179 299.318ZM18.5142 274.331L17.6298 274.798L17.6313 274.801L18.5142 274.331ZM18.6534 195.054L19.5347 195.527L18.6534 195.054ZM42.4574 170.136L42.9522 171.005L42.9553 171.004L42.4574 170.136ZM99.2528 164.986L98.9404 165.936L98.9422 165.936L99.2528 164.986ZM118.115 175.148L117.484 175.923L117.488 175.927L118.115 175.148ZM131.479 191.365L130.597 191.838L130.6 191.843L131.479 191.365ZM138.161 212.359H107.675V214.359H138.161V212.359ZM108.665 213.22C108.093 209.169 106.922 205.545 105.136 202.36L103.392 203.338C105.041 206.279 106.143 209.661 106.685 213.499L108.665 213.22ZM105.14 202.366C103.362 199.147 101.075 196.402 98.2816 194.138L97.0224 195.692C99.6111 197.789 101.733 200.334 103.389 203.333L105.14 202.366ZM98.2816 194.138C95.4894 191.875 92.2713 190.149 88.6378 188.953L88.0128 190.853C91.4323 191.978 94.432 193.593 97.0224 195.692L98.2816 194.138ZM88.6415 188.955C85.0486 187.757 81.1589 187.163 76.9801 187.163V189.163C80.968 189.163 84.6417 189.73 88.0091 190.852L88.6415 188.955ZM76.9801 187.163C69.4288 187.163 62.8032 189.042 57.144 192.831L58.2566 194.493C63.5481 190.95 69.7758 189.163 76.9801 189.163V187.163ZM57.1489 192.828C51.4877 196.57 47.1264 202.024 44.0455 209.134L45.8806 209.929C48.8319 203.118 52.9622 197.993 58.2517 194.496L57.1489 192.828ZM44.0465 209.131C40.9611 216.204 39.4389 224.747 39.4389 234.727H41.4389C41.4389 224.941 42.9328 216.686 45.8797 209.931L44.0465 209.131ZM39.4389 234.727C39.4389 244.982 40.9598 253.665 44.0465 260.741L45.8797 259.941C42.9341 253.189 41.4389 244.797 41.4389 234.727H39.4389ZM44.0488 260.746C47.1773 267.809 51.5638 273.194 57.2284 276.842L58.3114 275.161C53.0253 271.756 48.8738 266.701 45.8774 259.936L44.0488 260.746ZM57.2284 276.842C62.8819 280.483 69.4078 282.291 76.7713 282.291V280.291C69.7504 280.291 63.6087 278.573 58.3114 275.161L57.2284 276.842ZM76.7713 282.291C80.8967 282.291 84.7333 281.746 88.2741 280.645L87.6805 278.735C84.3538 279.769 80.7198 280.291 76.7713 280.291V282.291ZM88.2705 280.646C91.8541 279.547 95.0469 277.942 97.8388 275.824L96.63 274.23C94.0393 276.196 91.0607 277.699 87.6841 278.734L88.2705 280.646ZM97.8474 275.817C100.639 273.651 102.95 271.027 104.776 267.951L103.056 266.93C101.356 269.793 99.2122 272.227 96.6214 274.237L97.8474 275.817ZM104.77 267.961C106.65 264.875 107.943 261.37 108.658 257.458L106.691 257.098C106.015 260.796 104.801 264.066 103.062 266.92L104.77 267.961ZM107.67 258.278L138.156 258.418L138.165 256.418L107.679 256.278L107.67 258.278ZM137.168 257.298C136.394 263.717 134.459 269.912 131.357 275.889L133.132 276.81C136.34 270.629 138.35 264.204 139.153 257.537L137.168 257.298ZM131.355 275.891C128.304 281.811 124.181 287.122 118.976 291.825L120.317 293.309C125.691 288.453 129.966 282.952 133.133 276.808L131.355 275.891ZM118.976 291.824C113.834 296.467 107.678 300.164 100.497 302.908L101.211 304.776C108.599 301.953 114.972 298.133 120.316 293.309L118.976 291.824ZM100.5 302.907C93.3928 305.595 85.3258 306.949 76.2841 306.949V308.949C85.5246 308.949 93.8373 307.565 101.207 304.778L100.5 302.907ZM76.2841 306.949C63.7268 306.949 52.5332 304.109 42.6768 298.451L41.6811 300.185C51.8702 306.035 63.4133 308.949 76.2841 308.949V306.949ZM42.6786 298.452C32.8765 292.799 25.1159 284.613 19.3971 273.861L17.6313 274.801C23.5129 285.858 31.5288 294.33 41.6794 300.184L42.6786 298.452ZM19.3986 273.864C13.7378 263.136 10.8835 250.104 10.8835 234.727H8.88352C8.88352 250.347 11.783 263.717 17.6298 274.798L19.3986 273.864ZM10.8835 234.727C10.8835 219.306 13.7835 206.253 19.5347 195.527L17.7721 194.581C11.8301 205.664 8.88352 219.059 8.88352 234.727H10.8835ZM19.5347 195.527C25.2991 184.775 33.105 176.613 42.9522 171.005L41.9626 169.267C31.7643 175.075 23.7009 183.524 17.7721 194.581L19.5347 195.527ZM42.9553 171.004C52.8139 165.344 63.9152 162.506 76.2841 162.506V160.506C63.5961 160.506 52.1464 163.421 41.9595 169.269L42.9553 171.004ZM76.2841 162.506C84.4492 162.506 91.9988 163.652 98.9404 165.936L99.5653 164.036C92.4008 161.679 84.6379 160.506 76.2841 160.506V162.506ZM98.9422 165.936C105.932 168.221 112.109 171.551 117.484 175.923L118.746 174.372C113.17 169.836 106.773 166.391 99.5635 164.035L98.9422 165.936ZM117.488 175.927C122.855 180.248 127.225 185.548 130.597 191.838L132.36 190.892C128.865 184.375 124.325 178.864 118.742 174.369L117.488 175.927ZM130.6 191.843C134.011 198.12 136.206 205.326 137.167 213.477L139.154 213.242C138.166 204.874 135.906 197.417 132.357 190.888L130.6 191.843ZM162.712 306H161.712V307H162.712V306ZM162.712 163.455V162.455H161.712V163.455H162.712ZM192.85 163.455H193.85V162.455H192.85V163.455ZM192.85 222.268H191.85V223.268H192.85V222.268ZM254.03 222.268V223.268H255.03V222.268H254.03ZM254.03 163.455V162.455H253.03V163.455H254.03ZM284.098 163.455H285.098V162.455H284.098V163.455ZM284.098 306V307H285.098V306H284.098ZM254.03 306H253.03V307H254.03V306ZM254.03 247.116H255.03V246.116H254.03V247.116ZM192.85 247.116V246.116H191.85V247.116H192.85ZM192.85 306V307H193.85V306H192.85ZM163.712 306V163.455H161.712V306H163.712ZM162.712 164.455H192.85V162.455H162.712V164.455ZM191.85 163.455V222.268H193.85V163.455H191.85ZM192.85 223.268H254.03V221.268H192.85V223.268ZM255.03 222.268V163.455H253.03V222.268H255.03ZM254.03 164.455H284.098V162.455H254.03V164.455ZM283.098 163.455V306H285.098V163.455H283.098ZM284.098 305H254.03V307H284.098V305ZM255.03 306V247.116H253.03V306H255.03ZM254.03 246.116H192.85V248.116H254.03V246.116ZM191.85 247.116V306H193.85V247.116H191.85ZM192.85 305H162.712V307H192.85V305ZM311.886 306H310.886V307H311.886V306ZM311.886 163.455V162.455H310.886V163.455H311.886ZM395.688 169.232L395.236 170.124L395.242 170.127L395.688 169.232ZM413.158 185.449L412.289 185.944L412.293 185.951L413.158 185.449ZM413.088 234.449L413.945 234.965L413.946 234.962L413.088 234.449ZM395.34 250.04L394.916 249.134L394.914 249.135L395.34 250.04ZM329.705 255.469H328.705V256.469H329.705V255.469ZM329.705 231.247V230.247H328.705V231.247H329.705ZM376.825 228.881L377.208 229.804L376.825 228.881ZM385.317 221.781L384.46 221.265L384.455 221.274L385.317 221.781ZM385.317 198.047L384.449 198.543L384.454 198.552L385.317 198.047ZM376.756 190.669L376.344 191.581L376.351 191.584L376.358 191.586L376.756 190.669ZM342.024 188.094V187.094H341.024V188.094H342.024ZM342.024 306V307H343.024V306H342.024ZM388.867 241.131L389.744 240.651L389.46 240.131H388.867V241.131ZM424.294 306V307H425.98L425.172 305.521L424.294 306ZM391.024 306L390.142 306.471L390.425 307H391.024V306ZM356.362 241.131V240.131H354.694L355.48 241.602L356.362 241.131ZM312.886 306V163.455H310.886V306H312.886ZM311.886 164.455H368.125V162.455H311.886V164.455ZM368.125 164.455C378.773 164.455 387.798 166.359 395.236 170.124L396.139 168.339C388.357 164.401 379.007 162.455 368.125 162.455V164.455ZM395.242 170.127C402.732 173.849 408.403 179.12 412.289 185.944L414.027 184.954C409.932 177.764 403.956 172.224 396.133 168.336L395.242 170.127ZM412.293 185.951C416.227 192.734 418.213 200.745 418.213 210.018H420.213C420.213 200.453 418.162 192.084 414.023 184.947L412.293 185.951ZM418.213 210.018C418.213 219.338 416.204 227.297 412.23 233.935L413.946 234.962C418.139 227.959 420.213 219.631 420.213 210.018H418.213ZM412.232 233.933C408.259 240.523 402.501 245.591 394.916 249.134L395.763 250.946C403.676 247.25 409.75 241.924 413.945 234.965L412.232 233.933ZM394.914 249.135C387.377 252.676 378.204 254.469 367.359 254.469V256.469C378.417 256.469 387.897 254.642 395.765 250.945L394.914 249.135ZM367.359 254.469H329.705V256.469H367.359V254.469ZM330.705 255.469V231.247H328.705V255.469H330.705ZM329.705 232.247H362.487V230.247H329.705V232.247ZM362.487 232.247C368.324 232.247 373.244 231.448 377.208 229.804L376.442 227.957C372.797 229.469 368.158 230.247 362.487 230.247V232.247ZM377.208 229.804C381.188 228.155 384.199 225.654 386.179 222.288L384.455 221.274C382.723 224.219 380.073 226.452 376.442 227.957L377.208 229.804ZM386.173 222.298C388.192 218.949 389.171 214.838 389.171 210.018H387.171C387.171 214.572 386.247 218.303 384.46 221.265L386.173 222.298ZM389.171 210.018C389.171 205.153 388.192 200.978 386.18 197.541L384.454 198.552C386.246 201.612 387.171 205.418 387.171 210.018H389.171ZM386.185 197.551C384.209 194.092 381.178 191.497 377.154 189.752L376.358 191.586C380.036 193.182 382.713 195.505 384.449 198.543L386.185 197.551ZM377.167 189.758C373.193 187.964 368.238 187.094 362.348 187.094V189.094C368.058 189.094 372.709 189.94 376.344 191.581L377.167 189.758ZM362.348 187.094H342.024V189.094H362.348V187.094ZM341.024 188.094V306H343.024V188.094H341.024ZM342.024 305H311.886V307H342.024V305ZM387.989 241.61L423.416 306.479L425.172 305.521L389.744 240.651L387.989 241.61ZM424.294 305H391.024V307H424.294V305ZM391.906 305.529L357.244 240.659L355.48 241.602L390.142 306.471L391.906 305.529ZM356.362 242.131H388.867V240.131H356.362V242.131ZM565.603 274.401L564.724 273.925L564.722 273.928L565.603 274.401ZM541.66 299.388L542.153 300.258L542.155 300.257L541.66 299.388ZM473.589 299.318L474.085 298.45L473.589 299.318ZM449.716 274.331L448.834 274.803L449.716 274.331ZM449.716 195.054L450.597 195.527L449.716 195.054ZM473.589 170.136L474.082 171.006L474.085 171.005L473.589 170.136ZM541.66 170.136L541.164 171.005L541.169 171.007L541.66 170.136ZM565.603 195.054L564.722 195.527L564.724 195.529L565.603 195.054ZM539.363 209.253L538.445 209.648L538.447 209.653L539.363 209.253ZM526.765 193.523L526.216 194.358L526.765 193.523ZM488.623 193.523L489.173 194.358L488.623 193.523ZM475.956 209.253L475.039 208.853L475.037 208.858L475.956 209.253ZM475.956 260.202L475.037 260.596L475.039 260.602L475.956 260.202ZM488.623 275.932L489.173 275.096L488.623 275.932ZM526.765 275.932L526.216 275.096L526.765 275.932ZM539.363 260.202L538.447 259.802L538.445 259.807L539.363 260.202ZM573.443 234.727C573.443 250.147 570.52 263.199 564.724 273.925L566.483 274.876C572.473 263.793 575.443 250.396 575.443 234.727H573.443ZM564.722 273.928C558.959 284.677 551.107 292.864 541.166 298.519L542.155 300.257C552.444 294.404 560.555 285.933 566.485 274.873L564.722 273.928ZM541.167 298.518C531.261 304.133 520.112 306.949 507.694 306.949V308.949C520.427 308.949 531.921 306.058 542.153 300.258L541.167 298.518ZM507.694 306.949C495.184 306.949 483.99 304.11 474.085 298.45L473.093 300.186C483.327 306.034 494.869 308.949 507.694 308.949V306.949ZM474.085 298.45C464.19 292.796 456.361 284.609 450.597 273.858L448.834 274.803C454.763 285.862 462.85 294.333 473.093 300.186L474.085 298.45ZM450.597 273.858C444.845 263.132 441.946 250.101 441.946 234.727H439.946C439.946 250.349 442.893 263.722 448.834 274.803L450.597 273.858ZM441.946 234.727C441.946 219.306 444.846 206.253 450.597 195.527L448.834 194.581C442.892 205.664 439.946 219.059 439.946 234.727H441.946ZM450.597 195.527C456.361 184.777 464.189 176.614 474.082 171.006L473.096 169.266C462.851 175.073 454.764 183.523 448.834 194.581L450.597 195.527ZM474.085 171.005C483.99 165.345 495.184 162.506 507.694 162.506V160.506C494.869 160.506 483.327 163.42 473.093 169.268L474.085 171.005ZM507.694 162.506C520.11 162.506 531.259 165.344 541.164 171.005L542.156 169.268C531.924 163.421 520.428 160.506 507.694 160.506V162.506ZM541.169 171.007C551.108 176.615 558.959 184.778 564.722 195.527L566.485 194.581C560.555 183.521 552.443 175.072 542.152 169.265L541.169 171.007ZM564.724 195.529C570.52 206.255 573.443 219.307 573.443 234.727H575.443C575.443 219.058 572.473 205.661 566.483 194.579L564.724 195.529ZM544.888 234.727C544.888 224.564 543.366 215.928 540.28 208.853L538.447 209.653C541.393 216.406 542.888 224.752 542.888 234.727H544.888ZM540.282 208.858C537.248 201.794 532.932 196.384 527.315 192.687L526.216 194.358C531.456 197.807 535.54 202.884 538.445 209.648L540.282 208.858ZM527.315 192.687C521.704 188.994 515.15 187.163 507.694 187.163V189.163C514.808 189.163 520.969 190.905 526.216 194.358L527.315 192.687ZM507.694 187.163C500.238 187.163 493.685 188.994 488.074 192.687L489.173 194.358C494.419 190.905 500.58 189.163 507.694 189.163V187.163ZM488.074 192.687C482.458 196.383 478.12 201.791 475.039 208.853L476.872 209.653C479.824 202.887 483.931 197.808 489.173 194.358L488.074 192.687ZM475.037 208.858C471.999 215.931 470.501 224.566 470.501 234.727H472.501C472.501 224.75 473.973 216.402 476.874 209.648L475.037 208.858ZM470.501 234.727C470.501 244.889 471.999 253.523 475.037 260.596L476.874 259.807C473.973 253.052 472.501 244.704 472.501 234.727H470.501ZM475.039 260.602C478.12 267.664 482.458 273.071 488.074 276.767L489.173 275.096C483.931 271.646 479.824 266.567 476.872 259.802L475.039 260.602ZM488.074 276.767C493.685 280.46 500.238 282.291 507.694 282.291V280.291C500.58 280.291 494.419 278.549 489.173 275.096L488.074 276.767ZM507.694 282.291C515.15 282.291 521.704 280.46 527.315 276.767L526.216 275.096C520.969 278.549 514.808 280.291 507.694 280.291V282.291ZM527.315 276.767C532.932 273.07 537.248 267.661 540.282 260.596L538.445 259.807C535.54 266.57 531.456 271.647 526.216 275.096L527.315 276.767ZM540.28 260.602C543.366 253.527 544.888 244.89 544.888 234.727H542.888C542.888 244.702 541.393 253.049 538.447 259.802L540.28 260.602ZM718.937 163.455H719.937V162.455H718.937V163.455ZM718.937 306V307H719.937V306H718.937ZM692.905 306L692.083 306.569L692.381 307H692.905V306ZM630.89 216.283L631.712 215.714L631.414 215.283H630.89V216.283ZM629.846 216.283V215.283H628.846V216.283H629.846ZM629.846 306V307H630.846V306H629.846ZM599.708 306H598.708V307H599.708V306ZM599.708 163.455V162.455H598.708V163.455H599.708ZM626.157 163.455L626.981 162.889L626.683 162.455H626.157V163.455ZM687.685 253.102L686.861 253.668L687.159 254.102H687.685V253.102ZM688.938 253.102V254.102H689.938V253.102H688.938ZM688.938 163.455V162.455H687.938V163.455H688.938ZM717.937 163.455V306H719.937V163.455H717.937ZM718.937 305H692.905V307H718.937V305ZM693.728 305.431L631.712 215.714L630.067 216.851L692.083 306.569L693.728 305.431ZM630.89 215.283H629.846V217.283H630.89V215.283ZM628.846 216.283V306H630.846V216.283H628.846ZM629.846 305H599.708V307H629.846V305ZM600.708 306V163.455H598.708V306H600.708ZM599.708 164.455H626.157V162.455H599.708V164.455ZM625.332 164.02L686.861 253.668L688.51 252.536L626.981 162.889L625.332 164.02ZM687.685 254.102H688.938V252.102H687.685V254.102ZM689.938 253.102V163.455H687.938V253.102H689.938ZM688.938 164.455H718.937V162.455H688.938V164.455ZM776.914 163.455H777.914V162.455H776.914V163.455ZM776.914 306V307H777.914V306H776.914ZM746.777 306H745.777V307H746.777V306ZM746.777 163.455V162.455H745.777V163.455H746.777ZM775.914 163.455V306H777.914V163.455H775.914ZM776.914 305H746.777V307H776.914V305ZM747.777 306V163.455H745.777V306H747.777ZM746.777 164.455H776.914V162.455H746.777V164.455ZM930.422 213.359V214.359H931.547L931.415 213.242L930.422 213.359ZM899.936 213.359L898.946 213.499L899.067 214.359H899.936V213.359ZM896.525 202.849L895.65 203.333L895.653 203.338L896.525 202.849ZM889.913 194.915L889.284 195.692L889.913 194.915ZM880.586 189.903L880.27 190.852L880.274 190.853L880.586 189.903ZM849.961 193.662L850.513 194.496L850.518 194.493L849.961 193.662ZM837.224 209.531L838.141 209.931L838.142 209.929L837.224 209.531ZM837.224 260.341L836.308 260.741L836.31 260.746L837.224 260.341ZM850.031 276.001L849.49 276.842L850.031 276.001ZM880.238 279.69L879.945 278.734L879.942 278.735L880.238 279.69ZM889.495 275.027L890.1 275.824L890.108 275.817L889.495 275.027ZM896.177 267.44L895.323 266.92L895.317 266.93L896.177 267.44ZM899.936 257.278L899.94 256.278L899.103 256.275L898.952 257.098L899.936 257.278ZM930.422 257.418L931.414 257.537L931.549 256.423L930.426 256.418L930.422 257.418ZM924.505 276.349L923.618 275.889L923.617 275.891L924.505 276.349ZM911.907 292.567L912.577 293.309L912.578 293.309L911.907 292.567ZM893.115 303.842L893.469 304.778L893.472 304.776L893.115 303.842ZM834.44 299.318L833.94 300.184L833.942 300.185L834.44 299.318ZM810.775 274.331L809.891 274.798L809.892 274.801L810.775 274.331ZM810.914 195.054L811.796 195.527L810.914 195.054ZM834.719 170.136L835.213 171.005L835.216 171.004L834.719 170.136ZM891.514 164.986L891.201 165.936L891.203 165.936L891.514 164.986ZM910.376 175.148L909.745 175.923L909.749 175.927L910.376 175.148ZM923.74 191.365L922.859 191.838L922.861 191.843L923.74 191.365ZM930.422 212.359H899.936V214.359H930.422V212.359ZM900.926 213.22C900.354 209.169 899.183 205.545 897.398 202.36L895.653 203.338C897.302 206.279 898.404 209.661 898.946 213.499L900.926 213.22ZM897.401 202.366C895.623 199.147 893.337 196.402 890.543 194.138L889.284 195.692C891.872 197.789 893.994 200.334 895.65 203.333L897.401 202.366ZM890.543 194.138C887.75 191.875 884.532 190.149 880.899 188.953L880.274 190.853C883.693 191.978 886.693 193.593 889.284 195.692L890.543 194.138ZM880.903 188.955C877.31 187.757 873.42 187.163 869.241 187.163V189.163C873.229 189.163 876.903 189.73 880.27 190.852L880.903 188.955ZM869.241 187.163C861.69 187.163 855.064 189.042 849.405 192.831L850.518 194.493C855.809 190.95 862.037 189.163 869.241 189.163V187.163ZM849.41 192.828C843.749 196.57 839.388 202.024 836.307 209.134L838.142 209.929C841.093 203.118 845.223 197.993 850.513 194.496L849.41 192.828ZM836.308 209.131C833.222 216.204 831.7 224.747 831.7 234.727H833.7C833.7 224.941 835.194 216.686 838.141 209.931L836.308 209.131ZM831.7 234.727C831.7 244.982 833.221 253.665 836.308 260.741L838.141 259.941C835.195 253.189 833.7 244.797 833.7 234.727H831.7ZM836.31 260.746C839.438 267.809 843.825 273.194 849.49 276.842L850.572 275.161C845.286 271.756 841.135 266.701 838.138 259.936L836.31 260.746ZM849.49 276.842C855.143 280.483 861.669 282.291 869.032 282.291V280.291C862.011 280.291 855.87 278.573 850.572 275.161L849.49 276.842ZM869.032 282.291C873.158 282.291 876.994 281.746 880.535 280.645L879.942 278.735C876.615 279.769 872.981 280.291 869.032 280.291V282.291ZM880.532 280.646C884.115 279.547 887.308 277.942 890.1 275.824L888.891 274.23C886.3 276.196 883.322 277.699 879.945 278.734L880.532 280.646ZM890.108 275.817C892.9 273.651 895.211 271.027 897.037 267.951L895.317 266.93C893.617 269.793 891.473 272.227 888.883 274.237L890.108 275.817ZM897.031 267.961C898.911 264.875 900.204 261.37 900.919 257.458L898.952 257.098C898.276 260.796 897.063 264.066 895.323 266.92L897.031 267.961ZM899.931 258.278L930.417 258.418L930.426 256.418L899.94 256.278L899.931 258.278ZM929.429 257.298C928.655 263.717 926.72 269.912 923.618 275.889L925.393 276.81C928.601 270.629 930.611 264.204 931.414 257.537L929.429 257.298ZM923.617 275.891C920.566 281.811 916.442 287.122 911.237 291.825L912.578 293.309C917.952 288.453 922.228 282.952 925.394 276.808L923.617 275.891ZM911.237 291.824C906.095 296.467 899.94 300.164 892.758 302.908L893.472 304.776C900.86 301.953 907.233 298.133 912.577 293.309L911.237 291.824ZM892.761 302.907C885.654 305.595 877.587 306.949 868.545 306.949V308.949C877.786 308.949 886.098 307.565 893.469 304.778L892.761 302.907ZM868.545 306.949C855.988 306.949 844.794 304.109 834.938 298.451L833.942 300.185C844.131 306.035 855.674 308.949 868.545 308.949V306.949ZM834.94 298.452C825.138 292.799 817.377 284.613 811.658 273.861L809.892 274.801C815.774 285.858 823.79 294.33 833.94 300.184L834.94 298.452ZM811.66 273.864C805.999 263.136 803.145 250.104 803.145 234.727H801.145C801.145 250.347 804.044 263.717 809.891 274.798L811.66 273.864ZM803.145 234.727C803.145 219.306 806.045 206.253 811.796 195.527L810.033 194.581C804.091 205.664 801.145 219.059 801.145 234.727H803.145ZM811.796 195.527C817.56 184.775 825.366 176.613 835.213 171.005L834.224 169.267C824.025 175.075 815.962 183.524 810.033 194.581L811.796 195.527ZM835.216 171.004C845.075 165.344 856.176 162.506 868.545 162.506V160.506C855.857 160.506 844.407 163.421 834.221 169.269L835.216 171.004ZM868.545 162.506C876.71 162.506 884.26 163.652 891.201 165.936L891.826 164.036C884.662 161.679 876.899 160.506 868.545 160.506V162.506ZM891.203 165.936C898.193 168.221 904.37 171.551 909.745 175.923L911.007 174.372C905.431 169.836 899.034 166.391 891.825 164.035L891.203 165.936ZM909.749 175.927C915.117 180.248 919.486 185.548 922.859 191.838L924.621 190.892C921.126 184.375 916.587 178.864 911.003 174.369L909.749 175.927ZM922.861 191.843C926.273 198.12 928.467 205.326 929.429 213.477L931.415 213.242C930.427 204.874 928.167 197.417 924.618 190.888L922.861 191.843ZM954.973 306H953.973V307H954.973V306ZM954.973 163.455V162.455H953.973V163.455H954.973ZM985.111 163.455H986.111V162.455H985.111V163.455ZM985.111 281.152H984.111V282.152H985.111V281.152ZM1046.22 281.152H1047.22V280.152H1046.22V281.152ZM1046.22 306V307H1047.22V306H1046.22ZM955.973 306V163.455H953.973V306H955.973ZM954.973 164.455H985.111V162.455H954.973V164.455ZM984.111 163.455V281.152H986.111V163.455H984.111ZM985.111 282.152H1046.22V280.152H985.111V282.152ZM1045.22 281.152V306H1047.22V281.152H1045.22ZM1046.22 305H954.973V307H1046.22V305ZM1069.12 306H1068.12V307H1069.12V306ZM1069.12 163.455V162.455H1068.12V163.455H1069.12ZM1165.17 163.455H1166.17V162.455H1165.17V163.455ZM1165.17 188.303V189.303H1166.17V188.303H1165.17ZM1099.26 188.303V187.303H1098.26V188.303H1099.26ZM1099.26 222.268H1098.26V223.268H1099.26V222.268ZM1160.23 222.268H1161.23V221.268H1160.23V222.268ZM1160.23 247.116V248.116H1161.23V247.116H1160.23ZM1099.26 247.116V246.116H1098.26V247.116H1099.26ZM1099.26 281.152H1098.26V282.152H1099.26V281.152ZM1165.45 281.152H1166.45V280.152H1165.45V281.152ZM1165.45 306V307H1166.45V306H1165.45ZM1070.12 306V163.455H1068.12V306H1070.12ZM1069.12 164.455H1165.17V162.455H1069.12V164.455ZM1164.17 163.455V188.303H1166.17V163.455H1164.17ZM1165.17 187.303H1099.26V189.303H1165.17V187.303ZM1098.26 188.303V222.268H1100.26V188.303H1098.26ZM1099.26 223.268H1160.23V221.268H1099.26V223.268ZM1159.23 222.268V247.116H1161.23V222.268H1159.23ZM1160.23 246.116H1099.26V248.116H1160.23V246.116ZM1098.26 247.116V281.152H1100.26V247.116H1098.26ZM1099.26 282.152H1165.45V280.152H1099.26V282.152ZM1164.45 281.152V306H1166.45V281.152H1164.45ZM1165.45 305H1069.12V307H1165.45V305Z" fill="#472D00" mask="url(#path-3-outside-2_3478_195)"/>
</svg>
