<svg width="509" height="509" viewBox="0 0 509 509" fill="none" xmlns="http://www.w3.org/2000/svg">
<g clip-path="url(#clip0_3643_2555)">
<mask id="mask0_3643_2555" style="mask-type:luminance" maskUnits="userSpaceOnUse" x="0" y="0" width="509" height="509">
<path d="M267.532 508.419L8.79995e-05 267.532L240.887 4.38776e-05L508.419 240.887L267.532 508.419Z" fill="white"/>
</mask>
<g mask="url(#mask0_3643_2555)">
<mask id="mask1_3643_2555" style="mask-type:alpha" maskUnits="userSpaceOnUse" x="57" y="12" width="439" height="433">
<path d="M93.6362 351.843C49.3101 311.931 45.7312 243.643 85.6426 199.317L97.6869 185.94C137.589 141.625 205.852 138.036 250.179 177.917L169.953 105.681L254.263 12.0443L495.043 228.843L410.732 322.479C370.835 366.789 302.582 370.38 258.253 330.515L338.466 402.739C291.903 454.453 212.233 458.628 160.519 412.064L93.6362 351.843Z" fill="white"/>
</mask>
<g mask="url(#mask1_3643_2555)">
<path d="M8.79995e-05 267.532L267.532 508.419L508.419 240.887L240.887 4.38776e-05L8.79995e-05 267.532Z" fill="#654000"/>
<path d="M8.79995e-05 267.532L267.532 508.419L508.419 240.887L240.887 4.38776e-05L8.79995e-05 267.532Z" fill="#654000"/>
<path d="M8.79995e-05 267.532L267.532 508.419L508.419 240.887L240.887 4.38776e-05L8.79995e-05 267.532Z" fill="#654000"/>
</g>
</g>
<mask id="mask2_3643_2555" style="mask-type:alpha" maskUnits="userSpaceOnUse" x="57" y="12" width="439" height="433">
<path d="M93.6362 351.843C49.3101 311.931 45.7312 243.643 85.6426 199.317L97.6869 185.94C137.589 141.625 205.852 138.036 250.179 177.917L169.953 105.681L254.263 12.0443L495.043 228.843L410.732 322.479C370.835 366.789 302.582 370.38 258.253 330.515L338.466 402.739C291.903 454.453 212.233 458.628 160.519 412.064L93.6362 351.843Z" fill="white"/>
</mask>
<g mask="url(#mask2_3643_2555)">
<g style="mix-blend-mode:overlay">
<path d="M8.79995e-05 267.532L267.532 508.419L508.419 240.887L240.887 4.38776e-05L8.79995e-05 267.532Z" fill="#654000"/>
</g>
</g>
</g>
<defs>
<clipPath id="clip0_3643_2555">
<rect width="360" height="360" fill="white" transform="translate(267.532 508.419) rotate(-138)"/>
</clipPath>
</defs>
</svg>
